<?xml version='1.0' encoding='UTF-8'?>
<svg x="0px" y="0px" viewBox="0 0 32 32" version="1.1" xmlns="http://www.w3.org/2000/svg" xmlns:xlink="http://www.w3.org/1999/xlink" xml:space="preserve" id="Accounting" style="enable-background:new 0 0 32 32">
  <style type="text/css">
	.Black{fill:#727272;}
	.Red{fill:#D11C1C;}
	.Yellow{fill:#FFB115;}
	.Blue{fill:#1177D7;}
	.st0{opacity:0.5;}
</style>
  <rect x="6" y="4" width="16" height="6" class="Blue" />
  <rect x="18" y="12" width="4" height="4" class="Red" />
  <path d="M10,16H6v-4h4V16z M16,12h-4v4h4V12z M10,18H6v4h4V18z M16,18h-4v4h4V18z M22,18h-4v4h4V18z M16,24H4V2h20v16  h2V1c0-0.6-0.4-1-1-1H3C2.4,0,2,0.4,2,1v24c0,0.6,0.4,1,1,1h13V24z" class="Black" />
  <path d="M27,24c-1.7,0-3-0.9-3-2v4c0,1.1-1.3,2-3,2s-3-0.9-3-2v4c0,1.1,1.3,2,3,2s3-0.9,3-2c0,1.1,1.3,2,3,2  s3-0.9,3-2v-8C30,23.1,28.7,24,27,24z" class="Yellow" />
  <g class="st0">
    <path d="M30,22c0,1.1-1.3,2-3,2s-3-0.9-3-2s1.3-2,3-2S30,20.9,30,22z M21,24c-1.7,0-3,0.9-3,2s1.3,2,3,2s3-0.9,3-2   S22.7,24,21,24z" class="Yellow" />
  </g>
</svg>